<?xml version="1.0" standalone="no"?><!DOCTYPE svg PUBLIC "-//W3C//DTD SVG 1.1//EN" "http://www.w3.org/Graphics/SVG/1.1/DTD/svg11.dtd"><svg t="1722426575029" class="icon" viewBox="0 0 1024 1024" version="1.1" xmlns="http://www.w3.org/2000/svg" p-id="9009" xmlns:xlink="http://www.w3.org/1999/xlink" width="24" height="24"><path d="M0 0m512 0l0 0q512 0 512 512l0 0q0 512-512 512l0 0q-512 0-512-512l0 0q0-512 512-512Z" fill="#F5DF4D" p-id="9010"></path><path d="M430.08 610.304c-41.984 0-80.9984-9.5232-113.9712-25.6-22.3232 13.0048-53.3504 25.6-90.8288 25.6a8.018944 8.018944 0 0 1-7.4752-4.9152 8.194048 8.194048 0 0 1 1.536-8.9088c0.3072-0.3072 22.9376-24.8832 36.6592-55.808-24.4736-26.7264-38.912-59.0848-38.912-94.208 0-90.5216 95.3344-163.84 212.992-163.84s212.992 73.3184 212.992 163.84-95.3344 163.84-212.992 163.84z" fill="#2E2E30" opacity=".4" p-id="9011"></path><path d="M806.908928 577.533952c0 35.1232-14.4384 67.584-38.912 94.208 13.7216 31.0272 36.352 55.5008 36.6592 55.808a8.19712 8.19712 0 0 1 1.536 8.9088 8.072192 8.072192 0 0 1-7.4752 4.9152c-37.4784 0-68.5056-12.5952-90.8288-25.6-32.9728 16.1792-71.9872 25.6-113.9712 25.6-88.2688 0-164.0448-41.3696-196.3008-100.2496a306.746368 306.746368 0 0 0 32.4608 1.9456c135.4752 0 245.76-88.1664 245.76-196.608a152.20736 152.20736 0 0 0-1.3312-20.5824c77.6192 24.4736 132.4032 83.1488 132.4032 151.6544z" fill="#2E2E30" p-id="9012"></path></svg>