<?xml version="1.0" standalone="no"?><!DOCTYPE svg PUBLIC "-//W3C//DTD SVG 1.1//EN" "http://www.w3.org/Graphics/SVG/1.1/DTD/svg11.dtd"><svg t="1722425247314" class="icon" viewBox="0 0 1024 1024" version="1.1" xmlns="http://www.w3.org/2000/svg" p-id="5069" xmlns:xlink="http://www.w3.org/1999/xlink" width="24" height="24"><path d="M950.857143 475.428571c0 242.358857-196.498286 438.857143-438.857143 438.857143S73.142857 717.787429 73.142857 475.428571 269.641143 36.571429 512 36.571429s438.857143 196.498286 438.857143 438.857142z" fill="#B8ADD2" p-id="5070"></path><path d="M512 109.714286C310.016 109.714286 146.285714 273.444571 146.285714 475.428571s163.730286 365.714286 365.714286 365.714286 365.714286-163.730286 365.714286-365.714286S713.984 109.714286 512 109.714286zM73.142857 475.428571C73.142857 233.069714 269.641143 36.571429 512 36.571429s438.857143 196.498286 438.857143 438.857142-196.498286 438.857143-438.857143 438.857143S73.142857 717.787429 73.142857 475.428571z" fill="#B8ADD2" p-id="5071"></path><path d="M423.936 904.630857c-3.547429-4.571429-3.547429-45.238857 0-122.038857-37.888 1.316571-61.805714-1.316571-71.826286-7.862857-14.994286-9.874286-29.988571-40.228571-43.264-61.659429-13.312-21.394286-42.861714-24.795429-54.784-29.586285-11.922286-4.754286-14.921143-24.283429 32.877715-9.508572 47.762286 14.738286 50.102857 54.930286 65.170285 64.329143 15.067429 9.362286 51.126857 5.266286 67.437715-2.267429 16.347429-7.533714 15.140571-35.547429 18.066285-46.628571 3.657143-10.386286-9.289143-12.690286-9.581714-12.763429-15.945143 0-99.730286-18.212571-122.733714-99.328-23.04-81.152 6.619429-134.180571 22.418285-156.964571 10.569143-15.213714 9.618286-47.579429-2.779428-97.170286 45.056-5.741714 79.798857 8.411429 104.301714 42.532572 0 0.219429 32.073143-19.053714 82.761143-19.053715s68.681143 15.689143 82.541714 19.053715c13.897143 3.401143 24.978286-59.721143 110.665143-42.532572-17.883429 35.181714-32.877714 79.104-21.430857 97.170286 11.446857 18.066286 56.32 75.483429 28.745143 156.964571-18.358857 54.308571-54.491429 87.405714-108.397714 99.328-6.180571 1.974857-9.252571 5.156571-9.252572 9.545143 0 6.582857 8.338286 7.314286 20.370286 38.144 8.045714 20.553143 8.594286 79.286857 1.755428 176.201143-17.408 4.388571-30.939429 7.387429-40.594285 8.923429-17.152 2.669714-35.766857 4.205714-54.052572 4.754285-18.285714 0.585143-24.612571 0.548571-49.883428-1.828571a362.093714 362.093714 0 0 1-48.530286-7.753143z" fill="#333333" p-id="5072"></path></svg>